<?xml version="1.0" encoding="utf-8"?>
<svg width="50px" height="50px" viewBox="0 0 50 50" version="1.1" xmlns:xlink="http://www.w3.org/1999/xlink" xmlns="http://www.w3.org/2000/svg">
  <g id="Group">
    <path d="M25 0C11.1929 0 0 11.1929 0 25C1.98682e-06 38.8071 11.1929 50 25 50C38.8071 50 50 38.8071 50 25C49.9857 11.2002 38.8021 0.0155628 25.0012 1.98682e-06L25 0ZM25 45.8333C13.4941 45.8333 4.16667 36.5059 4.16667 25C4.16667 13.4941 13.4941 4.16667 25 4.16667C36.5059 4.16667 45.8333 13.4941 45.8333 25C45.8208 36.5006 36.5008 45.8206 25.0001 45.8333L25 45.8333Z" id="Shape" fill="#9C9FAA" fill-rule="evenodd" stroke="none" />
    <path d="M25 20.8333L22.9167 20.8333C21.7661 20.8333 20.8333 21.7661 20.8333 22.9167C20.8333 24.0673 21.7661 25 22.9167 25L25 25L25 37.5C25 38.6506 25.9327 39.5833 27.0833 39.5833C28.2339 39.5833 29.1666 38.6506 29.1666 37.5L29.1666 25C29.1666 22.6988 27.3012 20.8333 25 20.8333L25 20.8333Z" id="Shape" fill="#9C9FAA" stroke="none" />
    <path d="M21.875 13.5417C21.875 11.8158 23.2741 10.4167 25 10.4167C26.7259 10.4167 28.125 11.8158 28.125 13.5417C28.125 15.2676 26.7259 16.6667 25 16.6667C23.2741 16.6667 21.875 15.2676 21.875 13.5417Z" id="Circle" fill="#9C9FAA" fill-rule="evenodd" stroke="none" />
  </g>
</svg>