<?xml version="1.0" encoding="utf-8"?>
<svg width="30.779266px" height="30.779236px" viewBox="0 0 30.779266 30.779236" version="1.1" xmlns:xlink="http://www.w3.org/1999/xlink" xmlns="http://www.w3.org/2000/svg">
  <g id="Group">
    <path d="M15.3896 2.56548C18.839 2.57675 22.1404 3.96208 24.5583 6.41272L20.5391 6.41272C19.8281 6.41272 19.2517 6.98687 19.2517 7.69513L19.2517 7.69513C19.2517 8.40339 19.8281 8.97755 20.5391 8.97755L25.8727 8.97755C27.1927 8.97684 28.2626 7.91105 28.2633 6.5961L28.2633 1.28306C28.2633 0.574803 27.687 0.00064697 26.976 0.00064697L26.976 0.00064697C26.265 0.00064697 25.6886 0.574803 25.6886 1.28306L25.6886 3.94792C21.3488 0.0545632 15.1738 -1.06315 9.73651 1.06049C4.29921 3.18414 0.532362 8.18487 0.00554561 13.979C-0.028076 14.34 0.092262 14.6986 0.337142 14.9669C0.582023 15.2352 0.928878 15.3886 1.29292 15.3896L1.29292 15.3896C1.94544 15.3979 2.49707 14.9101 2.56613 14.2637C3.16011 7.64734 8.72126 2.57422 15.3896 2.56548L15.3896 2.56548Z" id="Shape" fill="#FFFFFF" stroke="none" />
    <path d="M29.4876 15.3896C28.8351 15.3813 28.2835 15.8692 28.2144 16.5156C27.7798 21.4997 24.4715 25.7753 19.7437 27.463C15.0159 29.1507 9.73443 27.9413 6.22097 24.3665L10.2401 24.3665C10.9511 24.3665 11.5275 23.7924 11.5275 23.0841L11.5275 23.0841C11.5275 22.3759 10.9511 21.8017 10.2401 21.8017L4.90656 21.8017C4.27242 21.8014 3.66415 22.0521 3.21574 22.4988C2.76734 22.9455 2.51557 23.5514 2.51592 24.1831L2.51592 29.4962C2.51592 30.2044 3.09229 30.7786 3.80329 30.7786L3.80329 30.7786C4.51428 30.7786 5.09066 30.2044 5.09066 29.4962L5.09066 26.8313C9.43041 30.7247 15.6055 31.8424 21.0427 29.7188C26.4801 27.5951 30.2469 22.5944 30.7737 16.8003C30.8073 16.4392 30.687 16.0807 30.4421 15.8123C30.1972 15.544 29.8504 15.3906 29.4863 15.3896L29.4876 15.3896Z" id="Shape" fill="#FFFFFF" stroke="none" />
  </g>
</svg>